<svg width="32" height="32" viewBox="0 0 32 32" fill="none" xmlns="http://www.w3.org/2000/svg">
<path d="M26.666 2.66675H5.33268C3.85992 2.66675 2.66602 3.86066 2.66602 5.33341V10.6667C2.66602 12.1395 3.85992 13.3334 5.33268 13.3334H26.666C28.1388 13.3334 29.3327 12.1395 29.3327 10.6667V5.33341C29.3327 3.86066 28.1388 2.66675 26.666 2.66675Z" stroke="black" stroke-width="2" stroke-linecap="round" stroke-linejoin="round"/>
<path d="M26.666 18.6667H5.33268C3.85992 18.6667 2.66602 19.8607 2.66602 21.3334V26.6667C2.66602 28.1395 3.85992 29.3334 5.33268 29.3334H26.666C28.1388 29.3334 29.3327 28.1395 29.3327 26.6667V21.3334C29.3327 19.8607 28.1388 18.6667 26.666 18.6667Z" stroke="black" stroke-width="2" stroke-linecap="round" stroke-linejoin="round"/>
<path d="M8 8H8.01333" stroke="black" stroke-width="2" stroke-linecap="round" stroke-linejoin="round"/>
<path d="M8 24H8.01333" stroke="black" stroke-width="2" stroke-linecap="round" stroke-linejoin="round"/>
</svg>
